<svg width="48" height="48" viewBox="0 0 48 48" fill="none" xmlns="http://www.w3.org/2000/svg">
<g clip-path="url(#clip0_463_225)">
<path d="M4 11V7.986C4.00366 7.46076 4.2138 6.95803 4.58503 6.58644C4.95625 6.21484 5.45876 6.00419 5.984 6H42.016C43.112 6 44 6.89 44 7.986V40.014C43.9963 40.5392 43.7862 41.042 43.415 41.4136C43.0438 41.7852 42.5412 41.9958 42.016 42H5.984C5.45763 41.9995 4.95299 41.79 4.58098 41.4176C4.20896 41.0452 4 40.5404 4 40.014V38H40V14.6L24 29L4 11ZM0 20H10V24H0V20ZM0 30H16V34H0V30Z" fill="#FAFAFF"/>
</g>
<defs>
<clipPath id="clip0_463_225">
<rect width="48" height="48" fill="white"/>
</clipPath>
</defs>
</svg>
