<svg width="500" height="568" viewBox="0 0 500 568" fill="none" xmlns="http://www.w3.org/2000/svg">
<circle cx="245.5" cy="275.5" r="235" stroke="#1F1F1F" stroke-width="16"/>
<g filter="url(#filter0_d_804_1136)">
<circle cx="245.5" cy="275.5" r="170" fill="#1F1F1F"/>
</g>
<circle cx="245.5" cy="275.5" r="100" fill="#282828"/>
<g clip-path="url(#clip0_804_1136)">
<path d="M30.89 158.51H42.8C43.58 158.51 44.22 157.87 44.22 157.09C44.22 156.31 43.58 155.67 42.8 155.67H30.89C30.11 155.67 29.47 156.31 29.47 157.09C29.47 157.87 30.11 158.51 30.89 158.51Z" fill="url(#paint0_linear_804_1136)"/>
<path d="M30.89 153.15H42.8C43.58 153.15 44.22 152.51 44.22 151.73C44.22 150.95 43.58 150.31 42.8 150.31H30.89C30.11 150.31 29.47 150.95 29.47 151.73C29.47 152.51 30.11 153.15 30.89 153.15Z" fill="url(#paint1_linear_804_1136)"/>
<path d="M30.89 147.78H42.8C43.58 147.78 44.22 147.14 44.22 146.36C44.22 145.58 43.58 144.94 42.8 144.94H30.89C30.11 144.94 29.47 145.58 29.47 146.36C29.47 147.14 30.11 147.78 30.89 147.78Z" fill="url(#paint2_linear_804_1136)"/>
<path d="M51.54 135H1.42C0.64 135 0 135.64 0 136.42V204.57C0 205.35 0.64 205.99 1.42 205.99H51.54C52.32 205.99 52.96 205.35 52.96 204.57V136.42C52.96 135.64 52.32 135 51.54 135ZM50.12 203.15H39.06V192.35C39.06 190.44 39.06 188.7 38.1 186.83C37.17 185.02 35.4 183.3 31.93 181.57C31.16 181.19 30.22 181.5 29.84 182.27C29.46 183.04 29.77 183.97 30.54 184.36C33.33 185.75 34.69 187.01 35.33 188.25C35.93 189.43 35.93 190.82 35.93 192.35V202.74H32.8V192.35C32.8 191.49 32.1 190.79 31.24 190.79C30.38 190.79 29.68 191.49 29.68 192.35V202.74H23.42V192.35C23.42 191.49 22.72 190.79 21.86 190.79C21 190.79 20.3 191.49 20.3 192.35V202.74H17.17V192.35C17.17 190.82 17.17 189.43 17.78 188.25C18.42 187.01 19.77 185.76 22.56 184.36C23.33 183.98 23.64 183.04 23.26 182.27C22.88 181.5 21.94 181.19 21.17 181.57C17.7 183.3 15.93 185.02 15.01 186.83C14.05 188.7 14.05 190.44 14.05 192.35V203.15H2.84V137.84H50.12V203.15Z" fill="url(#paint3_linear_804_1136)"/>
<path d="M10.16 153.15H14.11V157.1C14.11 157.88 14.75 158.52 15.53 158.52C16.31 158.52 16.95 157.88 16.95 157.1V153.15H20.9C21.68 153.15 22.32 152.51 22.32 151.73C22.32 150.95 21.68 150.31 20.9 150.31H16.95V146.36C16.95 145.58 16.31 144.94 15.53 144.94C14.75 144.94 14.11 145.58 14.11 146.36V150.31H10.16C9.37999 150.31 8.73999 150.95 8.73999 151.73C8.73999 152.51 9.37999 153.15 10.16 153.15Z" fill="url(#paint4_linear_804_1136)"/>
<path d="M20.02 171.9C20.02 173.98 20.68 176.2 21.74 177.85C22.86 179.58 24.44 180.77 26.27 180.77C28.1 180.77 29.69 179.59 30.8 177.85C31.86 176.2 32.52 173.99 32.52 171.9C32.52 169.81 31.89 168.22 30.86 167.07C29.69 165.77 28.06 165.12 26.27 165.12C24.48 165.12 22.84 165.77 21.68 167.07C20.65 168.21 20.02 169.83 20.02 171.9ZM23.72 168.69C24.33 168.01 25.24 167.66 26.27 167.66C27.3 167.66 28.21 168 28.82 168.69C29.42 169.35 29.79 170.38 29.79 171.77C29.79 173.46 29.26 175.24 28.42 176.56C27.78 177.54 27.02 178.22 26.27 178.22C25.52 178.22 24.76 177.55 24.13 176.56C23.29 175.24 22.76 173.46 22.76 171.77C22.76 170.38 23.13 169.35 23.73 168.69H23.72Z" fill="url(#paint5_linear_804_1136)"/>
</g>
<path fill-rule="evenodd" clip-rule="evenodd" d="M464.27 170.39C466.3 170.39 468.05 169.08 469.28 167.17C470.45 165.35 471.18 162.9 471.18 160.6C471.18 158.3 470.48 156.53 469.34 155.26C468.05 153.83 466.25 153.1 464.26 153.1C462.27 153.1 460.47 153.82 459.18 155.26C458.04 156.53 457.34 158.32 457.34 160.6C457.34 162.88 458.07 165.35 459.24 167.17C460.47 169.09 462.23 170.39 464.25 170.39H464.27ZM461.45 157.04C462.13 156.29 463.13 155.91 464.27 155.91C465.41 155.91 466.42 156.29 467.09 157.04C467.75 157.77 468.16 158.91 468.16 160.45C468.16 162.32 467.57 164.29 466.64 165.75C465.94 166.84 465.09 167.58 464.27 167.58C463.45 167.58 462.6 166.84 461.9 165.75C460.97 164.29 460.38 162.32 460.38 160.45C460.38 158.91 460.79 157.78 461.45 157.04ZM447.29 190.11C447.29 191.06 446.52 191.84 445.56 191.84H431.73C430.78 191.84 430 191.07 430 190.11V174.55C430 168.96 433.66 167.15 436.94 165.53C438.74 164.64 440.38 163.83 440.38 162.45C440.38 161.49 441.15 160.72 442.11 160.72C443.07 160.72 443.84 161.49 443.84 162.45C443.84 165.98 441.28 167.24 438.47 168.63C436.1 169.8 433.45 171.11 433.45 174.56V188.39H436.92V179.75C436.92 178.8 437.69 178.02 438.65 178.02C439.61 178.02 440.38 178.8 440.38 179.75V188.39H445.57C446.52 188.39 447.3 189.17 447.3 190.12L447.29 190.11ZM477.36 177.09C478.42 179.16 478.42 181.08 478.42 183.19V190.11C478.42 191.06 477.64 191.84 476.69 191.84H452.48C451.53 191.84 450.75 191.07 450.75 190.11V183.19C450.75 181.08 450.75 179.15 451.81 177.09C452.83 175.09 454.79 173.19 458.63 171.28C459.48 170.86 460.52 171.2 460.94 172.05C461.36 172.9 461.02 173.93 460.17 174.36C457.09 175.9 455.59 177.29 454.88 178.66C454.21 179.96 454.21 181.5 454.21 183.19V188.38H457.67V183.19C457.67 182.24 458.44 181.46 459.4 181.46C460.36 181.46 461.13 182.23 461.13 183.19V188.38H468.05V183.19C468.05 182.24 468.82 181.46 469.78 181.46C470.74 181.46 471.51 182.23 471.51 183.19V188.38H474.97V183.19C474.97 181.5 474.97 179.96 474.3 178.66C473.59 177.29 472.09 175.9 469.01 174.36C468.16 173.94 467.81 172.9 468.24 172.05C468.67 171.2 469.7 170.85 470.55 171.28C474.38 173.2 476.34 175.1 477.37 177.09H477.36ZM488.86 156.21C489.28 155.47 489.63 154.62 489.93 153.74L492.96 154.5C492.96 150.88 490.75 143.95 488.99 142.18L488.93 142.11C487.58 140.47 485.69 139.64 483.61 139.64C481.53 139.64 479.55 140.46 478.23 142.19C475.84 145.31 474.27 151.44 474.27 154.5L477.29 153.74C477.59 154.62 477.94 155.47 478.36 156.21L478.41 156.29C479.7 158.5 481.52 160 483.61 160C485.7 160 487.57 158.46 488.86 156.2V156.21ZM480.7 155.24L480.66 155.16C479.57 153.26 478.9 150.69 478.9 148.25C478.9 146.15 479.41 144.58 480.24 143.53C481.07 142.49 482.27 141.97 483.61 141.97C484.95 141.97 486.1 142.47 486.92 143.46L486.98 143.54C487.81 144.58 488.32 146.15 488.32 148.25C488.32 150.69 487.64 153.26 486.56 155.16C485.71 156.65 484.66 157.67 483.61 157.67C482.56 157.67 481.55 156.69 480.71 155.24H480.7ZM451.81 155.68C453.29 153.09 454.21 149.62 454.21 146.36C454.21 143.1 453.36 140.75 451.96 139.01C450.35 137 448.08 135.98 445.56 135.98C443.04 135.98 440.85 136.96 439.24 138.91L439.16 139.01C437.77 140.75 436.91 143.21 436.91 146.36C436.91 149.51 437.83 153.09 439.32 155.68C440.86 158.37 443.04 160.2 445.56 160.2C448.08 160.2 450.21 158.42 451.74 155.78L451.8 155.68H451.81ZM449.02 154.34L448.97 154.44C447.98 156.14 446.77 157.29 445.57 157.29C444.37 157.29 443.11 156.1 442.12 154.34C440.85 152.11 440.05 149.1 440.05 146.24C440.05 143.77 440.65 141.93 441.62 140.71L441.69 140.62C442.66 139.46 444.04 138.87 445.58 138.87C447.12 138.87 448.56 139.48 449.53 140.7C450.5 141.92 451.1 143.76 451.1 146.23C451.1 149.09 450.31 152.1 449.03 154.33L449.02 154.34ZM499.17 190.1C499.17 191.05 498.39 191.83 497.44 191.83H483.61C482.65 191.83 481.88 191.06 481.88 190.1C481.88 189.14 482.66 188.37 483.61 188.37H488.79V179.73C488.79 178.78 489.57 178 490.52 178C491.47 178 492.25 178.78 492.25 179.73V188.37H495.71V174.54C495.71 171.09 493.07 169.79 490.7 168.61C487.89 167.22 485.33 165.96 485.33 162.43C485.33 161.47 486.1 160.7 487.06 160.7C488.02 160.7 488.79 161.47 488.79 162.43C488.79 163.82 490.42 164.62 492.23 165.51C495.51 167.13 499.16 168.94 499.16 174.53V190.09L499.17 190.1Z" fill="url(#paint6_linear_804_1136)"/>
<g clip-path="url(#clip1_804_1136)">
<path d="M214.72 6.55999C214.72 5.88999 215.26 5.33999 215.94 5.33999H275.89C276.56 5.33999 277.11 5.87999 277.11 6.55999C277.11 7.23999 276.56 7.77999 275.89 7.77999H215.93C215.26 7.77999 214.71 7.23999 214.71 6.55999H214.72ZM215.94 2.42999H275.89C276.56 2.42999 277.11 1.88999 277.11 1.20999C277.11 0.52999 276.56 -0.0100098 275.89 -0.0100098H215.93C215.26 -0.0100098 214.71 0.52999 214.71 1.20999C214.71 1.88999 215.25 2.42999 215.93 2.42999H215.94ZM280.35 43.27C280.35 43.94 279.81 44.49 279.13 44.49H212.22C211.55 44.49 211 43.95 211 43.27C211 42.59 211.54 42.05 212.22 42.05H215.27C215.22 41.92 215.19 41.79 215.19 41.64V11.91C215.19 11.24 215.73 10.69 216.41 10.69H275.43C276.1 10.69 276.65 11.23 276.65 11.91V42.06H279.15C279.82 42.06 280.37 42.61 280.37 43.28L280.35 43.27ZM217.53 42.05H237.29C237.29 41.99 237.25 41.94 237.25 41.87V28.86C237.25 28.19 237.8 27.64 238.47 27.64H253.81C254.48 27.64 255.03 28.18 255.03 28.86V42.05H274.2V13.12H217.62V41.64C217.62 41.78 217.58 41.92 217.54 42.05H217.53ZM252.59 30.08H239.69V41.87C239.69 41.93 239.66 41.99 239.65 42.05H252.59V30.08Z" fill="url(#paint7_linear_804_1136)"/>
</g>
<g clip-path="url(#clip2_804_1136)">
<path d="M277.52 537.6C277.52 533.74 274.38 530.61 270.53 530.61C266.68 530.61 263.54 533.75 263.54 537.6C263.54 540.88 265.82 543.62 268.86 544.37V550.58C268.86 558.2 262.66 564.39 255.05 564.39C247.44 564.39 241.24 558.19 241.24 550.58V547.45C243.24 546.87 244.8 545.29 245.34 543.27C247.43 543.03 249.42 542.22 251.04 540.85C259.85 533.4 264.9 522.51 264.9 510.98V499.65C264.9 492.85 259.48 487.31 252.74 487.07C252.24 486.42 251.47 485.99 250.58 485.99C249.08 485.99 247.86 487.21 247.86 488.71C247.86 490.21 249.08 491.43 250.58 491.43C251.43 491.43 252.19 491.03 252.68 490.42C257.6 490.63 261.55 494.67 261.55 499.64V510.96C261.55 521.51 256.93 531.47 248.87 538.28C247.84 539.15 246.58 539.71 245.26 539.92C244.5 537.48 242.24 535.69 239.55 535.69C236.86 535.69 234.59 537.49 233.84 539.94C232.43 539.76 231.1 539.2 230 538.28C221.96 531.49 217.33 521.53 217.33 510.98V499.65C217.33 494.68 221.28 490.64 226.2 490.43C226.7 491.04 227.45 491.44 228.3 491.44C229.8 491.44 231.02 490.22 231.02 488.72C231.02 487.22 229.8 486 228.3 486C227.42 486 226.64 486.43 226.15 487.08C219.41 487.31 214 492.86 214 499.65V510.97C214 522.5 219.05 533.39 227.86 540.84C229.54 542.26 231.62 543.08 233.8 543.28C234.35 545.28 235.91 546.85 237.9 547.44V550.57C237.9 560.03 245.59 567.72 255.05 567.72C264.51 567.72 272.2 560.03 272.2 550.57V544.36C275.25 543.61 277.52 540.87 277.52 537.59V537.6ZM236.9 541.71C236.9 540.24 238.1 539.04 239.57 539.04C241.04 539.04 242.24 540.24 242.24 541.71C242.24 543.18 241.04 544.38 239.57 544.38C238.1 544.38 236.9 543.18 236.9 541.71ZM270.72 541.23C270.66 541.23 270.6 541.19 270.53 541.19C270.46 541.19 270.41 541.22 270.34 541.23C268.41 541.13 266.87 539.54 266.87 537.59C266.87 535.64 268.51 533.93 270.53 533.93C272.55 533.93 274.19 535.57 274.19 537.59C274.19 539.61 272.65 541.13 270.72 541.23Z" fill="url(#paint8_linear_804_1136)"/>
</g>
<path d="M485.43 394.31L454.29 376.67C451.07 374.44 446.09 374.44 442.88 376.67L411.73 394.31C411.04 394.7 410.8 395.58 411.19 396.27C411.58 396.96 412.46 397.2 413.15 396.81L420.19 392.82V424.1C420.19 427.79 423.19 430.79 426.88 430.79H470.29C473.98 430.79 476.98 427.79 476.98 424.1V392.83L484.02 396.82C484.24 396.95 484.49 397.01 484.73 397.01C485.23 397.01 485.72 396.75 485.98 396.28C486.37 395.59 486.13 394.71 485.44 394.32L485.43 394.31ZM474.11 391.56V424.11C474.11 426.21 472.4 427.93 470.29 427.93H426.87C424.77 427.93 423.05 426.22 423.05 424.11V391.56C423.05 391.45 423.01 391.34 422.98 391.24L444.35 379.14C444.35 379.14 444.43 379.09 444.47 379.06C446.7 377.48 450.46 377.48 452.69 379.06C452.73 379.09 452.77 379.11 452.81 379.14L474.17 391.24C474.14 391.35 474.1 391.45 474.1 391.56H474.11Z" fill="url(#paint9_linear_804_1136)"/>
<path d="M443.16 393.31C438.34 393.19 434.36 397.05 434.27 401.86C434.19 405.7 436.25 409.95 439.76 413.24C443.23 416.49 447.42 420.92 447.46 420.96C447.73 421.24 448.1 421.4 448.48 421.41H448.5C448.88 421.41 449.25 421.26 449.52 420.99C449.56 420.95 453.82 416.69 457.41 413.57C461.04 410.42 463.25 406.24 463.32 402.41C463.36 400.08 462.49 397.88 460.88 396.2C459.26 394.52 457.09 393.58 454.76 393.54C452.66 393.49 450.54 394.23 448.93 395.5C447.37 394.17 445.28 393.37 443.17 393.32L443.16 393.31ZM454.7 396.4C456.26 396.43 457.72 397.06 458.81 398.19C459.9 399.31 460.48 400.79 460.45 402.36C460.4 405.35 458.51 408.82 455.53 411.41C452.96 413.65 450.05 416.45 448.54 417.94C447.06 416.4 444.22 413.49 441.73 411.16C438.85 408.46 437.09 404.93 437.15 401.94C437.21 398.75 439.82 396.2 443 396.2C443.04 396.2 443.08 396.2 443.12 396.2C444.93 396.24 446.71 397.08 447.77 398.41C448.04 398.74 448.44 398.94 448.87 398.95C449.31 398.96 449.71 398.77 449.99 398.45C451.1 397.16 452.9 396.4 454.72 396.41L454.7 396.4Z" fill="url(#paint10_linear_804_1136)"/>
<path fill-rule="evenodd" clip-rule="evenodd" d="M53.66 408.3C56.48 408.3 58.92 406.48 60.64 403.81C62.27 401.27 63.29 397.86 63.29 394.66C63.29 391.46 62.32 388.99 60.73 387.23C58.94 385.23 56.42 384.23 53.66 384.23C50.9 384.23 48.39 385.23 46.59 387.23C45 388.99 44.03 391.48 44.03 394.66C44.03 397.84 45.05 401.27 46.68 403.81C48.4 406.48 50.84 408.3 53.66 408.3ZM49.18 389.34C50.25 388.23 51.85 387.67 53.66 387.67C55.47 387.67 57.06 388.23 58.14 389.34C59.19 390.42 59.84 392.09 59.84 394.36C59.84 397.12 58.91 400.02 57.43 402.17C56.31 403.77 54.97 404.87 53.67 404.87C52.37 404.87 51.03 403.78 49.91 402.17C48.43 400.02 47.5 397.12 47.5 394.36C47.5 392.09 48.15 390.43 49.2 389.34H49.18ZM30.87 436.17C30.87 437.27 29.98 438.15 28.88 438.15H12.99C11.89 438.15 11 437.26 11 436.17V418.29C11 411.87 15.21 409.79 18.97 407.93C21.04 406.91 22.92 405.98 22.92 404.39C22.92 403.29 23.81 402.4 24.91 402.4C26.01 402.4 26.9 403.29 26.9 404.39C26.9 408.44 23.96 409.89 20.73 411.48C18 412.83 14.97 414.33 14.97 418.29V434.18H18.95V424.25C18.95 423.15 19.84 422.26 20.94 422.26C22.04 422.26 22.93 423.15 22.93 424.25V434.18H28.89C29.99 434.18 30.88 435.07 30.88 436.17H30.87ZM71.88 417.63C73.35 420.51 73.36 423.18 73.36 426.12V435.75C73.36 437.08 72.28 438.15 70.95 438.15H37.25C35.92 438.15 34.84 437.07 34.84 435.75V426.12C34.84 423.18 34.84 420.5 36.31 417.63C37.73 414.85 40.46 412.2 45.8 409.54C46.98 408.95 48.43 409.43 49.02 410.61C49.61 411.79 49.13 413.23 47.95 413.82C43.66 415.97 41.57 417.89 40.59 419.81C39.66 421.62 39.66 423.77 39.66 426.12V433.34H44.48V426.12C44.48 424.79 45.56 423.72 46.89 423.72C48.22 423.72 49.29 424.8 49.29 426.12V433.34H58.92V426.12C58.92 424.79 60 423.72 61.32 423.72C62.64 423.72 63.73 424.8 63.73 426.12V433.34H68.55V426.12C68.55 423.77 68.55 421.62 67.62 419.81C66.64 417.9 64.55 415.97 60.26 413.82C59.08 413.23 58.6 411.79 59.19 410.61C59.78 409.43 61.22 408.95 62.41 409.54C67.75 412.21 70.47 414.85 71.9 417.63H71.88ZM36.06 396.63C37.76 393.66 38.82 389.67 38.82 385.92C38.82 382.17 37.84 379.47 36.24 377.48C34.39 375.17 31.78 374 28.89 374C26 374 23.47 375.13 21.63 377.36L21.54 377.47C19.94 379.47 18.96 382.29 18.96 385.92C18.96 389.55 20.02 393.65 21.72 396.62C23.49 399.71 25.99 401.81 28.89 401.81C31.79 401.81 34.23 399.76 35.99 396.74L36.06 396.63ZM32.86 395.1L32.8 395.21C31.66 397.16 30.27 398.49 28.89 398.49C27.51 398.49 26.07 397.12 24.92 395.1C23.46 392.54 22.54 389.08 22.54 385.8C22.54 382.96 23.22 380.85 24.34 379.45L24.42 379.35C25.53 378.01 27.12 377.34 28.88 377.34C30.64 377.34 32.3 378.05 33.42 379.44C34.54 380.84 35.22 382.96 35.22 385.79C35.22 389.07 34.31 392.54 32.84 395.09L32.86 395.1Z" fill="url(#paint11_linear_804_1136)"/>
<circle cx="286" cy="314" r="10" fill="#DAE1E9"/>
<circle cx="286" cy="240" r="10" fill="#DAE1E9"/>
<circle cx="208" cy="240" r="10" fill="#DAE1E9"/>
<circle cx="208" cy="314" r="10" fill="#DAE1E9"/>
<circle cx="246" cy="276" r="95" stroke="url(#paint12_linear_804_1136)" stroke-width="10"/>
<circle cx="246" cy="276" r="95" stroke="#A5ADB1" stroke-opacity="0.13" stroke-width="10"/>
<path d="M171 276C229.065 276 245.194 226 246 201" stroke="url(#paint13_linear_804_1136)" stroke-width="8"/>
<path d="M171 276C229.065 276 245.194 226 246 201" stroke="#A5ADB1" stroke-opacity="0.13" stroke-width="8"/>
<path d="M246 201C246 259.065 296 275.194 321 276" stroke="url(#paint14_linear_804_1136)" stroke-width="8"/>
<path d="M246 201C246 259.065 296 275.194 321 276" stroke="#A5ADB1" stroke-opacity="0.13" stroke-width="8"/>
<path d="M321 276C262.935 276 246.806 326 246 351" stroke="url(#paint15_linear_804_1136)" stroke-width="8"/>
<path d="M321 276C262.935 276 246.806 326 246 351" stroke="#A5ADB1" stroke-opacity="0.13" stroke-width="8"/>
<path d="M245 351C245 292.935 195 276.806 170 276" stroke="url(#paint16_linear_804_1136)" stroke-width="8"/>
<path d="M245 351C245 292.935 195 276.806 170 276" stroke="#A5ADB1" stroke-opacity="0.13" stroke-width="8"/>
<defs>
<filter id="filter0_d_804_1136" x="61.5" y="95.5" width="368" height="368" filterUnits="userSpaceOnUse" color-interpolation-filters="sRGB">
<feFlood flood-opacity="0" result="BackgroundImageFix"/>
<feColorMatrix in="SourceAlpha" type="matrix" values="0 0 0 0 0 0 0 0 0 0 0 0 0 0 0 0 0 0 127 0" result="hardAlpha"/>
<feOffset dy="4"/>
<feGaussianBlur stdDeviation="7"/>
<feComposite in2="hardAlpha" operator="out"/>
<feColorMatrix type="matrix" values="0 0 0 0 0.312356 0 0 0 0 0.312356 0 0 0 0 0.312356 0 0 0 0.05 0"/>
<feBlend mode="normal" in2="BackgroundImageFix" result="effect1_dropShadow_804_1136"/>
<feBlend mode="normal" in="SourceGraphic" in2="effect1_dropShadow_804_1136" result="shape"/>
</filter>
<linearGradient id="paint0_linear_804_1136" x1="29.47" y1="157.09" x2="44.22" y2="157.09" gradientUnits="userSpaceOnUse">
<stop stop-color="#00C1DE"/>
<stop offset="1" stop-color="white"/>
</linearGradient>
<linearGradient id="paint1_linear_804_1136" x1="-3.2421e-05" y1="151.73" x2="0.999968" y2="151.73" gradientUnits="userSpaceOnUse">
<stop stop-color="#00C1DE"/>
<stop offset="1" stop-color="white"/>
</linearGradient>
<linearGradient id="paint2_linear_804_1136" x1="-3.2421e-05" y1="146.36" x2="0.999968" y2="146.36" gradientUnits="userSpaceOnUse">
<stop stop-color="#00C1DE"/>
<stop offset="1" stop-color="white"/>
</linearGradient>
<linearGradient id="paint3_linear_804_1136" x1="0" y1="170.49" x2="52.96" y2="170.49" gradientUnits="userSpaceOnUse">
<stop stop-color="#00C1DE"/>
<stop offset="1" stop-color="white"/>
</linearGradient>
<linearGradient id="paint4_linear_804_1136" x1="8.73999" y1="151.73" x2="22.32" y2="151.73" gradientUnits="userSpaceOnUse">
<stop stop-color="#00C1DE"/>
<stop offset="1" stop-color="white"/>
</linearGradient>
<linearGradient id="paint5_linear_804_1136" x1="20.02" y1="172.95" x2="32.53" y2="172.95" gradientUnits="userSpaceOnUse">
<stop stop-color="#00C1DE"/>
<stop offset="1" stop-color="white"/>
</linearGradient>
<linearGradient id="paint6_linear_804_1136" x1="430" y1="163.92" x2="499.17" y2="163.92" gradientUnits="userSpaceOnUse">
<stop stop-color="#00C1DE"/>
<stop offset="1" stop-color="white"/>
</linearGradient>
<linearGradient id="paint7_linear_804_1136" x1="211" y1="22.24" x2="280.35" y2="22.24" gradientUnits="userSpaceOnUse">
<stop stop-color="#00C1DE"/>
<stop offset="1" stop-color="white"/>
</linearGradient>
<linearGradient id="paint8_linear_804_1136" x1="214" y1="526.86" x2="277.52" y2="526.86" gradientUnits="userSpaceOnUse">
<stop stop-color="#00C1DE"/>
<stop offset="1" stop-color="white"/>
</linearGradient>
<linearGradient id="paint9_linear_804_1136" x1="411" y1="402.9" x2="486.16" y2="402.9" gradientUnits="userSpaceOnUse">
<stop stop-color="#00C1DE"/>
<stop offset="1" stop-color="white"/>
</linearGradient>
<linearGradient id="paint10_linear_804_1136" x1="434.27" y1="407.35" x2="463.32" y2="407.35" gradientUnits="userSpaceOnUse">
<stop stop-color="#00C1DE"/>
<stop offset="1" stop-color="white"/>
</linearGradient>
<linearGradient id="paint11_linear_804_1136" x1="11" y1="406.08" x2="73.35" y2="406.08" gradientUnits="userSpaceOnUse">
<stop stop-color="#00C1DE"/>
<stop offset="1" stop-color="white"/>
</linearGradient>
<linearGradient id="paint12_linear_804_1136" x1="174.302" y1="276.3" x2="312.981" y2="276.3" gradientUnits="userSpaceOnUse">
<stop stop-color="#DAE1E9"/>
<stop offset="1" stop-color="#00ABC8"/>
</linearGradient>
<linearGradient id="paint13_linear_804_1136" x1="181.613" y1="238.613" x2="233.618" y2="238.613" gradientUnits="userSpaceOnUse">
<stop stop-color="#DAE1E9"/>
<stop offset="1" stop-color="#00ABC8"/>
</linearGradient>
<linearGradient id="paint14_linear_804_1136" x1="283.387" y1="211.613" x2="283.387" y2="263.618" gradientUnits="userSpaceOnUse">
<stop stop-color="#DAE1E9"/>
<stop offset="1" stop-color="#00ABC8"/>
</linearGradient>
<linearGradient id="paint15_linear_804_1136" x1="310.387" y1="313.387" x2="258.382" y2="313.387" gradientUnits="userSpaceOnUse">
<stop stop-color="#DAE1E9"/>
<stop offset="1" stop-color="#00ABC8"/>
</linearGradient>
<linearGradient id="paint16_linear_804_1136" x1="207.613" y1="340.387" x2="207.613" y2="288.382" gradientUnits="userSpaceOnUse">
<stop stop-color="#DAE1E9"/>
<stop offset="1" stop-color="#00ABC8"/>
</linearGradient>
<clipPath id="clip0_804_1136">
<rect width="52.96" height="70.99" fill="white" transform="translate(0 135)"/>
</clipPath>
<clipPath id="clip1_804_1136">
<rect width="69.35" height="44.49" fill="white" transform="translate(211)"/>
</clipPath>
<clipPath id="clip2_804_1136">
<rect width="63.52" height="81.72" fill="white" transform="translate(214 486)"/>
</clipPath>
</defs>
</svg>
